<?xml version="1.0" encoding="utf-8"?>
<!-- Generator: Adobe Illustrator 23.0.1, SVG Export Plug-In . SVG Version: 6.00 Build 0)  -->
<svg version="1.1" id="Слой_1" xmlns="http://www.w3.org/2000/svg" xmlns:xlink="http://www.w3.org/1999/xlink" x="0px" y="0px"
	 viewBox="0 0 18 18" style="enable-background:new 0 0 18 18;" xml:space="preserve">
<style type="text/css">
	.st0{fill:#0E0E0E;}
	.st1{fill:#8F0000;}
	.st2{fill:#3A3A3A;}
	.st3{fill:#E70707;}
</style>
<g>
	<path class="st0" d="M12,5.4l0.7,0.2c0,0,1.1-0.5,1.8-1.1c0.7-0.7-0.2-1-0.2-1L12,5.4z"/>
	<polygon class="st1" points="6.6,2.2 5.5,2.9 0.7,16.3 1.6,16.8 	"/>
	<path class="st2" d="M12,3.2v2.1c0,0,1.1-0.5,2-1.3c0,2.6,0,6.5,0,6.5l2.3,0.2V0.5l-1.8,0.3C14.5,0.6,14.1,2.2,12,3.2z"/>
	<polygon class="st0" points="16.3,0.5 16.8,0.9 16.8,10.6 16.3,10.7 	"/>
	<polygon class="st1" points="7.6,8 9.6,15.5 10.6,15.8 8.3,6.3 	"/>
	<path class="st3" d="M13.5,15.6L9.7,2.9L6.6,2.2L1.6,16.8L5,16.5l0.8-2.9l4.1-0.2l0,0l0.7,2.5L13.5,15.6z M6.8,11.1l1.5-4.7
		l1.1,4.7H6.8z"/>
</g>
</svg>
