<?xml version="1.0" encoding="utf-8"?>
<!-- Generator: Adobe Illustrator 23.0.1, SVG Export Plug-In . SVG Version: 6.00 Build 0)  -->
<svg version="1.1" id="Слой_1" xmlns="http://www.w3.org/2000/svg" xmlns:xlink="http://www.w3.org/1999/xlink" x="0px" y="0px"
	 viewBox="0 0 18 18" style="enable-background:new 0 0 18 18;" xml:space="preserve">
<style type="text/css">
	.st0{fill:#002395;}
	.st1{fill:#FFFFFF;}
</style>
<path class="st0" d="M9,18L9,18c-5,0-9-4-9-9v0c0-5,4-9,9-9h0c5,0,9,4,9,9v0C18,14,14,18,9,18z"/>
<path id="XMLID_1093_" class="st1" d="M8.3,11.5c0,0.6-0.5,1.1-1.1,1.1c-0.6,0-1.1-0.5-1.1-1.1c0-0.6,0.5-1.1,1.1-1.1
	C7.8,10.5,8.3,10.9,8.3,11.5 M8.3,6.9c0-0.6-0.5-1.1-1.1-1.1c-0.6,0-1.1,0.5-1.1,1.1c0,0.6,0.5,1.1,1.1,1.1C7.8,7.9,8.3,7.5,8.3,6.9
	 M9.7,3L8.8,3.6c1,1.7,1.4,3.2,1.4,5.4c0,2.1-0.5,3.7-1.4,5.4L9.7,15c1.3-1.6,2.2-3.8,2.2-6C11.8,6.8,11,4.5,9.7,3"/>
</svg>
